<svg width="48" height="48" viewBox="0 0 48 48" fill="none" xmlns="http://www.w3.org/2000/svg">
<circle cx="24" cy="24" r="24" fill="#22C55E"/>
<path d="M29.9999 16.4799C28.4086 14.8886 26.2504 13.9946 23.9999 13.9946C21.7495 13.9946 19.5912 14.8886 17.9999 16.4799C16.4086 18.0712 15.5146 20.2295 15.5146 22.4799C15.5146 24.7303 16.4086 26.8886 17.9999 28.4799L23.2699 33.7599C23.3629 33.8536 23.4735 33.928 23.5954 33.9788C23.7172 34.0296 23.8479 34.0557 23.9799 34.0557C24.1119 34.0557 24.2426 34.0296 24.3645 33.9788C24.4864 33.928 24.597 33.8536 24.6899 33.7599L29.9999 28.4299C31.5846 26.8452 32.4748 24.696 32.4748 22.4549C32.4748 20.2139 31.5846 18.0646 29.9999 16.4799ZM28.5699 26.9999L23.9999 31.5899L19.4299 26.9999C18.5271 26.0962 17.9124 24.9452 17.6636 23.6922C17.4148 22.4392 17.5431 21.1407 18.0322 19.9606C18.5213 18.7805 19.3493 17.772 20.4116 17.0624C21.4738 16.3528 22.7225 15.9741 23.9999 15.9741C25.2773 15.9741 26.5261 16.3528 27.5883 17.0624C28.6505 17.772 29.4785 18.7805 29.9676 19.9606C30.4567 21.1407 30.585 22.4392 30.3362 23.6922C30.0875 24.9452 29.4728 26.0962 28.5699 26.9999ZM20.9999 19.4099C20.1926 20.2197 19.7393 21.3165 19.7393 22.4599C19.7393 23.6033 20.1926 24.7001 20.9999 25.5099C21.5997 26.1107 22.3635 26.521 23.1956 26.6893C24.0276 26.8576 24.8909 26.7765 25.677 26.4561C26.4631 26.1356 27.1371 25.5902 27.6144 24.8882C28.0917 24.1861 28.3511 23.3588 28.3599 22.5099C28.3644 21.9431 28.2553 21.3812 28.0388 20.8573C27.8224 20.3334 27.5032 19.8583 27.0999 19.4599C26.7036 19.0545 26.231 18.7314 25.7094 18.5094C25.1877 18.2873 24.6273 18.1706 24.0603 18.1659C23.4934 18.1613 22.9311 18.2688 22.4059 18.4823C21.8807 18.6958 21.4029 19.011 20.9999 19.4099ZM25.6899 24.0899C25.311 24.4747 24.8101 24.7158 24.2731 24.7722C23.736 24.8285 23.196 24.6966 22.7454 24.3988C22.2949 24.1011 21.9617 23.6562 21.8029 23.14C21.6441 22.6238 21.6696 22.0685 21.8749 21.5691C22.0802 21.0696 22.4526 20.6569 22.9285 20.4016C23.4044 20.1464 23.9542 20.0643 24.4839 20.1695C25.0135 20.2747 25.4902 20.5607 25.8324 20.9784C26.1746 21.3962 26.3611 21.9199 26.3599 22.4599C26.3454 23.0772 26.0864 23.6634 25.6399 24.0899H25.6899Z" fill="#F0FDF4"/>
</svg>
