<svg width="48" height="48" viewBox="0 0 48 48" fill="none" xmlns="http://www.w3.org/2000/svg">
<circle cx="24" cy="24" r="24" fill="#22C55E"/>
<path d="M31.4099 25C31.1899 25 30.9599 24.93 30.7399 24.88C30.2948 24.7805 29.857 24.6501 29.4299 24.49C28.966 24.3212 28.4561 24.33 27.9982 24.5146C27.5404 24.6992 27.167 25.0466 26.9499 25.49L26.7299 25.95C25.7587 25.3992 24.8616 24.7271 24.0599 23.95C23.2828 23.1484 22.6107 22.2512 22.0599 21.28L22.5199 21.07C22.9633 20.8529 23.3107 20.4795 23.4953 20.0217C23.6799 19.5639 23.6887 19.0539 23.5199 18.59C23.3611 18.159 23.2308 17.7181 23.1299 17.27C23.0799 17.05 23.0399 16.82 23.0099 16.6C22.8885 15.8956 22.5196 15.2577 21.9695 14.8012C21.4195 14.3447 20.7246 14.0996 20.0099 14.11H16.9999C16.5772 14.1094 16.1591 14.1982 15.773 14.3706C15.387 14.5429 15.0418 14.7949 14.7599 15.11C14.4722 15.4337 14.258 15.8158 14.132 16.23C14.006 16.6443 13.9712 17.081 14.0299 17.51C14.5735 21.6721 16.4751 25.5387 19.4399 28.51C22.4113 31.4748 26.2778 33.3764 30.4399 33.92C30.5697 33.9299 30.7001 33.9299 30.8299 33.92C31.5673 33.9211 32.2793 33.6505 32.8299 33.16C33.145 32.8782 33.397 32.5329 33.5693 32.1469C33.7417 31.7609 33.8305 31.3428 33.8299 30.92V27.92C33.8245 27.229 33.5808 26.5611 33.1399 26.0291C32.6989 25.4971 32.0879 25.1336 31.4099 25ZM31.8999 31C31.8996 31.1395 31.8701 31.2775 31.8132 31.4049C31.7564 31.5324 31.6735 31.6465 31.5699 31.74C31.4603 31.8399 31.3299 31.9141 31.1881 31.9573C31.0463 32.0006 30.8966 32.0117 30.7499 31.99C27.0182 31.5026 23.5502 29.802 20.8799 27.15C18.2074 24.4775 16.492 20.9974 15.9999 17.25C15.9782 17.1033 15.9894 16.9537 16.0326 16.8119C16.0758 16.67 16.1501 16.5396 16.2499 16.43C16.3445 16.3252 16.4603 16.2415 16.5896 16.1847C16.7188 16.1278 16.8587 16.0989 16.9999 16.1H19.9999C20.2311 16.0944 20.4571 16.169 20.6394 16.3112C20.8217 16.4534 20.9491 16.6544 20.9999 16.88C20.9999 17.15 21.0899 17.43 21.1499 17.7C21.2655 18.2239 21.4192 18.7386 21.6099 19.24L20.2099 19.9C19.9693 20.0105 19.7823 20.2119 19.6899 20.46C19.5899 20.7035 19.5899 20.9765 19.6899 21.22C21.1291 24.3028 23.6072 26.7808 26.6899 28.22C26.9334 28.32 27.2065 28.32 27.4499 28.22C27.6981 28.1276 27.8995 27.9406 28.0099 27.7L28.6399 26.3C29.1558 26.4881 29.6837 26.6418 30.2199 26.76C30.4799 26.82 30.7599 26.87 31.0299 26.91C31.2555 26.9608 31.4565 27.0882 31.5987 27.2705C31.7409 27.4529 31.8156 27.6788 31.8099 27.91L31.8999 31ZM25.9999 14C25.7699 14 25.5299 14 25.2999 14C25.0347 14.0225 24.7893 14.1495 24.6177 14.353C24.4461 14.5565 24.3624 14.8198 24.3849 15.085C24.4075 15.3502 24.5344 15.5956 24.7379 15.7672C24.9414 15.9388 25.2047 16.0225 25.4699 16H25.9999C27.5912 16 29.1174 16.6321 30.2426 17.7574C31.3678 18.8826 31.9999 20.4087 31.9999 22C31.9999 22.18 31.9999 22.35 31.9999 22.53C31.9778 22.7938 32.0611 23.0556 32.2317 23.2581C32.4023 23.4606 32.6462 23.5871 32.9099 23.61H32.9899C33.2403 23.611 33.4819 23.5181 33.667 23.3496C33.8522 23.1811 33.9674 22.9493 33.9899 22.7C33.9899 22.47 33.9899 22.23 33.9899 22C33.9899 19.88 33.1484 17.8467 31.6503 16.3467C30.1522 14.8467 28.1199 14.0027 25.9999 14ZM27.9999 22C27.9999 22.2652 28.1053 22.5196 28.2928 22.7071C28.4804 22.8946 28.7347 23 28.9999 23C29.2651 23 29.5195 22.8946 29.707 22.7071C29.8946 22.5196 29.9999 22.2652 29.9999 22C29.9999 20.9391 29.5785 19.9217 28.8284 19.1716C28.0782 18.4214 27.0608 18 25.9999 18C25.7347 18 25.4804 18.1054 25.2928 18.2929C25.1053 18.4804 24.9999 18.7348 24.9999 19C24.9999 19.2652 25.1053 19.5196 25.2928 19.7071C25.4804 19.8946 25.7347 20 25.9999 20C26.5304 20 27.0391 20.2107 27.4141 20.5858C27.7892 20.9609 27.9999 21.4696 27.9999 22Z" fill="#F0FDF4"/>
</svg>
